# xmcd
#
# Track frame offsets:
#	150
#	17295
#	36012
#	75652
#	99075
#	116112
#
# Disc length: 1762 seconds
# Revision: 0
# Processed by: cddbd v1.5.2PL0 Copyright (c) Steve Scherf et al.
# Submitted via: dBpowerAMP V12.0
#
DISCID=3506e006
DTITLE=She Moves - It's Your Love
DYEAR=1998
DGENRE=R&B
TTITLE0=It's Your Love [LP Version]
TTITLE1=It's Your Love [Love To Infinity Radio Mix]
TTITLE2=It's Your Love [Love To Infinity Classic Paradise Mix]
TTITLE3=It's Your Love [Love To Infinity Groove Mix]
TTITLE4=It's Your Love [Berman Brothers Dance Mix]
TTITLE5=Every Time You Touch Me (I Get High)
EXTD=
EXTT0=
EXTT1=
EXTT2=
EXTT3=
EXTT4=
EXTT5=
PLAYORDER=
